<svg width="24" height="24" viewBox="0 0 24 24" fill="none" xmlns="http://www.w3.org/2000/svg">
<path d="M11.9992 8.99944C17.9329 8.84345 17.9319 0.15499 11.9992 0C6.06562 0.15599 6.06662 8.84445 11.9992 8.99944ZM11.9992 1.99987C15.285 2.05887 15.284 6.94157 11.9992 6.99956C8.71445 6.94057 8.71445 2.05787 11.9992 1.99987ZM22.2026 11.1613C21.0597 10.2084 19.5628 9.81439 18.1039 10.0804L14.2831 10.7753C13.3702 10.9413 12.5762 11.4093 11.9992 12.0642C11.4213 11.4093 10.6283 10.9413 9.71439 10.7753L5.89363 10.0804C4.43272 9.81639 2.93782 10.2084 1.79589 11.1613C0.653959 12.1142 0 13.5132 0 15.0001V17.7929C0 20.2097 1.72689 22.2786 4.10574 22.7116L10.3894 23.8545C11.4573 24.0485 12.5402 24.0485 13.6081 23.8545L19.8928 22.7116C22.2716 22.2786 23.9975 20.2097 23.9975 17.7929V15.0001C23.9975 13.5132 23.3435 12.1142 22.2016 11.1623L22.2026 11.1613ZM10.9993 21.9276C10.9153 21.9156 10.8313 21.9016 10.7473 21.8866L4.46372 20.7437C3.03581 20.4837 1.99987 19.2428 1.99987 17.7919V14.9991C1.99987 14.1071 2.39285 13.2682 3.07781 12.6962C3.76276 12.1232 4.66771 11.8883 5.53665 12.0482L9.35741 12.7432C10.3094 12.9162 10.9993 13.7431 10.9993 14.7111V21.9276ZM21.9986 17.7929C21.9986 19.2438 20.9627 20.4847 19.5358 20.7447L13.2512 21.8876C13.1672 21.9026 13.0832 21.9166 12.9992 21.9286V14.7121C12.9992 13.7451 13.6891 12.9172 14.6411 12.7442L18.4618 12.0492C19.3368 11.8893 20.2357 12.1262 20.9217 12.6972C21.6066 13.2692 21.9986 14.1081 21.9986 15.0001V17.7929Z" fill="#476EE6"/>
</svg>
